<?xml version="1.0" standalone="no"?>
<!DOCTYPE svg PUBLIC "-//W3C//DTD SVG 20010904//EN"
 "http://www.w3.org/TR/2001/REC-SVG-20010904/DTD/svg10.dtd">
<svg version="1.0" xmlns="http://www.w3.org/2000/svg"
 width="688.000000pt" height="456.000000pt" viewBox="0 0 688.000000 456.000000"
 preserveAspectRatio="xMidYMid meet">
<metadata>
Created by potrace 1.16, written by Peter Selinger 2001-2019
</metadata>
<g transform="translate(0.000000,456.000000) scale(0.100000,-0.100000)"
fill="#b04440" stroke="none">
<path d="M0 2280 l0 -2280 3440 0 3440 0 0 2280 0 2280 -3440 0 -3440 0 0
-2280z m1846 1398 c4 -6 8 -41 10 -79 1 -37 7 -76 13 -87 6 -12 11 -34 11 -51
0 -16 4 -41 10 -55 5 -14 12 -87 15 -163 2 -76 6 -143 7 -150 1 -9 51 -11 212
-8 260 6 315 -7 315 -70 0 -40 -45 -76 -107 -86 -31 -5 -77 -13 -102 -17 -25
-5 -104 -8 -176 -7 l-130 1 2 -50 c1 -28 6 -69 11 -91 5 -22 6 -51 3 -65 -4
-14 -1 -41 6 -60 7 -19 15 -89 18 -156 3 -67 8 -145 12 -175 3 -30 1 -80 -4
-112 -5 -32 -6 -60 -1 -62 11 -7 19 -69 20 -155 1 -92 -3 -117 -27 -165 -24
-48 -55 -61 -86 -35 -23 18 -23 18 -24 312 -1 161 -4 325 -8 365 -4 45 -2 74
4 78 13 8 13 58 -1 72 -6 6 -12 46 -14 89 -2 44 -7 113 -10 154 l-7 75 -46 0
c-43 1 -77 4 -212 21 -25 3 -67 5 -95 5 -62 0 -86 17 -94 66 -17 96 1 101 317
90 l142 -5 2 47 c1 25 2 80 3 122 1 42 5 84 8 94 4 9 3 24 -2 33 -9 18 -24
149 -22 190 1 12 3 40 4 62 2 40 10 50 23 28z m3390 -180 c21 -12 47 -24 59
-26 42 -6 94 -23 100 -32 3 -6 15 -10 26 -10 10 0 19 -4 19 -10 0 -5 8 -10 18
-10 20 -1 52 -23 52 -37 0 -5 7 -25 17 -43 14 -30 14 -36 2 -59 -10 -18 -24
-27 -44 -28 -41 -3 -161 39 -157 56 1 7 -2 10 -9 5 -7 -4 -17 -1 -23 7 -6 8
-28 23 -49 34 -22 11 -44 28 -51 37 -7 9 -24 22 -39 27 -38 15 -46 55 -16 87
28 30 47 30 95 2z m-1911 -465 c17 -9 39 -24 50 -34 11 -11 29 -27 41 -37 22
-17 74 -118 74 -142 0 -7 11 -27 24 -44 13 -17 26 -41 30 -54 4 -12 18 -42 32
-65 13 -23 24 -50 24 -60 0 -10 5 -28 12 -40 23 -43 31 -242 11 -305 -7 -25
-11 -60 -8 -76 5 -24 0 -37 -18 -56 -13 -14 -24 -32 -25 -40 0 -8 -4 -28 -7
-45 -3 -16 -7 -42 -9 -56 -3 -27 -86 -119 -107 -119 -7 0 -10 -3 -6 -6 6 -6
-60 -74 -73 -74 -4 0 -10 -6 -13 -14 -4 -9 -14 -12 -27 -9 -11 3 -57 -1 -103
-8 -104 -17 -97 -16 -132 -7 -16 4 -43 10 -60 13 -74 13 -89 17 -107 26 -11 6
-22 8 -25 5 -7 -6 -5 -117 3 -208 3 -34 7 -101 8 -148 2 -47 6 -92 9 -100 25
-76 34 -190 38 -481 1 -69 -20 -138 -43 -140 -78 -7 -118 -5 -118 8 0 7 -5 13
-11 13 -6 0 -9 7 -5 15 3 9 0 15 -10 15 -11 0 -12 4 -4 19 7 14 7 22 -1 26 -6
4 -8 14 -5 22 3 8 3 19 0 25 -4 6 -8 30 -10 55 -2 25 -8 51 -14 59 -8 9 -8 18
-1 33 17 32 20 103 4 134 -7 15 -11 32 -8 38 4 5 3 18 -1 27 -18 41 -27 280
-26 677 1 88 1 169 0 180 -1 26 11 164 17 191 2 11 7 51 10 90 5 68 15 181 21
219 8 65 58 285 70 312 8 17 14 36 14 42 0 13 36 51 48 51 16 0 30 -45 26 -85
-2 -22 -7 -62 -12 -90 -6 -27 -8 -53 -6 -56 7 -12 -3 -595 -10 -608 -8 -12 21
-22 47 -16 16 4 35 -6 71 -40 68 -64 104 -77 195 -70 66 5 80 10 122 42 27 20
46 40 43 44 -2 5 0 16 5 26 10 19 29 61 55 127 9 21 16 49 16 62 0 12 5 26 11
30 12 7 11 232 -1 249 -4 6 -11 27 -14 49 -4 21 -11 46 -16 55 -17 33 -40 102
-40 122 0 11 -7 27 -15 35 -8 9 -15 24 -15 35 0 22 -29 59 -47 59 -7 0 -13 4
-13 8 0 19 -112 34 -232 32 -16 0 -28 4 -28 10 0 18 -23 11 -51 -16 -43 -41
-68 -12 -29 34 42 51 296 74 375 35z m1487 -82 c108 -1 109 -1 144 -44 35 -42
21 -97 -32 -122 -25 -12 -39 -13 -60 -5 -16 6 -44 9 -64 5 -19 -3 -55 -8 -80
-11 -24 -2 -47 -9 -50 -13 -3 -5 -20 -12 -37 -16 -18 -3 -33 -11 -33 -16 0 -5
-15 -9 -32 -9 -26 0 -42 -10 -78 -48 -41 -43 -102 -126 -106 -144 -1 -5 -2
-12 -3 -17 0 -4 -14 -25 -30 -45 -16 -20 -33 -51 -37 -69 -6 -27 -21 -60 -63
-137 -20 -36 -72 -169 -77 -196 -2 -16 -13 -58 -23 -94 -10 -36 -24 -84 -30
-107 -6 -23 -21 -49 -33 -58 -20 -13 -24 -13 -38 0 -13 14 -15 67 -15 393 0
476 18 652 71 700 14 12 22 22 18 22 -5 0 -3 5 2 10 19 19 64 -6 64 -34 0 -14
-4 -27 -10 -31 -5 -3 -7 -12 -3 -20 3 -9 1 -21 -4 -28 -7 -10 -8 -354 -1 -424
3 -31 16 -18 28 30 7 23 26 74 45 112 18 39 43 91 55 118 12 26 31 52 41 58
10 5 19 16 19 24 0 7 3 15 8 17 4 2 16 21 27 42 11 22 27 43 35 48 18 9 70 30
86 33 6 2 23 10 37 20 51 33 112 61 132 59 11 -1 68 -2 127 -3z m617 -167 c-1
-27 1 -56 5 -62 4 -7 9 -74 11 -150 2 -75 9 -183 15 -239 6 -56 10 -117 10
-135 -1 -18 2 -73 5 -123 13 -166 11 -185 -15 -192 -11 -3 -20 -12 -20 -20 0
-10 -7 -14 -20 -10 -11 3 -20 1 -20 -4 0 -17 -50 -9 -71 12 -20 20 -20 28 -14
147 3 70 10 150 15 177 4 28 9 84 9 125 3 179 33 487 52 537 10 27 11 28 25 8
10 -13 14 -38 13 -71z"/>
</g>
</svg>
